<svg width="71" height="36" viewBox="0 0 71 36" fill="none" xmlns="http://www.w3.org/2000/svg">
<path fill-rule="evenodd" clip-rule="evenodd" d="M36.8431 30.8421C35.421 30.7577 34.0117 30.521 32.6391 30.1357C32.3988 30.0695 31.4379 29.7164 31.1867 29.5949C29.1225 28.6402 27.3497 27.1427 26.0536 25.259C24.7575 23.3752 23.9855 21.1742 23.8184 18.886C23.6512 16.5976 24.095 14.3059 25.1034 12.2501C26.1117 10.1944 27.6476 8.45003 29.5507 7.19921C31.4537 5.94838 33.6543 5.237 35.9223 5.13935C38.1903 5.0417 40.4426 5.56138 42.444 6.64409C44.4455 7.72682 46.1226 9.33287 47.3002 11.2945C48.4778 13.2561 49.1128 15.5014 49.1387 17.7957H53.7141C53.6971 14.7087 52.8701 11.6815 51.3177 9.02302C49.7651 6.3645 47.5427 4.16985 44.8771 2.66298C42.2116 1.15612 39.1982 0.390995 36.1446 0.44567C33.0909 0.500332 30.1062 1.37285 27.4951 2.97418C24.884 4.57552 22.7398 6.84834 21.2814 9.56077C19.8232 12.2732 19.1027 15.3281 19.1939 18.4139C19.285 21.4995 20.1843 24.5056 21.8001 27.1252C23.4159 29.745 25.6903 31.8845 28.3913 33.3256C29.3098 33.7991 30.2626 34.2012 31.2414 34.5287C32.9105 35.0025 34.6226 35.3057 36.3517 35.4337C36.9196 35.4337 38.9178 35.489 39.4967 35.5H70.9782V30.8864H39.4967C39.0816 30.8864 37.2471 30.8642 36.8431 30.8421ZM39.4967 23.6015C39.1691 23.6015 37.4219 23.6015 37.1052 23.6015C36.4854 23.5615 35.8689 23.4804 35.2597 23.3587C34.7929 23.24 34.3392 23.0736 33.9057 22.862C33.0621 22.4025 32.3531 21.7266 31.8499 20.9022C31.3465 20.078 31.0667 19.1342 31.0386 18.166C31.0104 17.1979 31.2349 16.2391 31.6894 15.3864C32.1439 14.5336 32.8125 13.8169 33.628 13.308C34.4433 12.7991 35.3769 12.5162 36.3348 12.4876C37.2927 12.459 38.2411 12.6856 39.0849 13.145C39.9287 13.6042 40.6379 14.2799 41.1414 15.104C41.645 15.9281 41.9251 16.8717 41.9535 17.84H46.3214C46.2849 16.0842 45.7887 14.3697 44.8831 12.871C43.9775 11.3724 42.695 10.1431 41.1665 9.30848C39.6379 8.4739 37.9177 8.06383 36.1812 8.12004C34.4448 8.17627 32.754 8.69677 31.2815 9.62852C29.8088 10.5602 28.6069 11.87 27.798 13.4241C26.9892 14.9784 26.6025 16.7215 26.6772 18.476C26.7519 20.2304 27.2854 21.9335 28.2234 23.4117C29.1613 24.8899 30.4702 26.0904 32.0166 26.8907C32.5514 27.176 33.1153 27.4017 33.6982 27.564C34.7197 27.8147 35.7612 27.9736 36.8104 28.0386C37.1707 28.0386 38.9943 28.0386 39.3329 28.0939H70.9782V23.6789L39.4967 23.6015ZM16.3796 35.4779H11.8042V5.15783H5.06675V0.499995H16.3796V35.4779ZM0 7.48676V11.979H5.06675V35.4779H9.50015V7.48676H0Z" fill="#D20A11"/>
</svg>
